<svg xmlns="http://www.w3.org/2000/svg" width="760" height="320" viewBox="0 0 760 320" role="img"><title>16Personalities assessment: Architect (INTJ-T)</title><desc>Self-reported 16Personalities assessment showing five personality trait balances.</desc><rect x="1" y="1" width="758" height="318" rx="18" fill="#FFFFFF" stroke="#D0D7DE"/><g font-family="-apple-system,BlinkMacSystemFont,Segoe UI,Helvetica,Arial,sans-serif"><text x="28" y="38" fill="#88619A" font-size="12" font-weight="700">16PERSONALITIES</text><text x="28" y="70" fill="#1F2328" font-size="24" font-weight="750">Architect · INTJ-T</text><text x="28" y="92" fill="#59636E" font-size="11">Assessment snapshot · self-described, not an ability score</text><text x="28" y="126" fill="#59636E" font-size="10" font-weight="700">ENERGY</text><text x="118" y="126" fill="#1F2328" font-size="11" font-weight="650">Introverted 76%</text><rect x="255" y="118" width="250" height="10" rx="5" fill="#E1E4E8"/><rect x="255" y="118" width="190.0" height="10" rx="5" fill="#88619A"/><text x="732" y="126" fill="#1F2328" font-size="11" font-weight="650" text-anchor="end">Extraverted 24%</text><text x="28" y="162" fill="#59636E" font-size="10" font-weight="700">MIND</text><text x="118" y="162" fill="#1F2328" font-size="11" font-weight="650">Intuitive 88%</text><rect x="255" y="154" width="250" height="10" rx="5" fill="#E1E4E8"/><rect x="255" y="154" width="220.0" height="10" rx="5" fill="#88619A"/><text x="732" y="162" fill="#1F2328" font-size="11" font-weight="650" text-anchor="end">Observant 12%</text><text x="28" y="198" fill="#59636E" font-size="10" font-weight="700">NATURE</text><text x="118" y="198" fill="#1F2328" font-size="11" font-weight="650">Thinking 51%</text><rect x="255" y="190" width="250" height="10" rx="5" fill="#E1E4E8"/><rect x="255" y="190" width="127.5" height="10" rx="5" fill="#88619A"/><text x="732" y="198" fill="#1F2328" font-size="11" font-weight="650" text-anchor="end">Feeling 49%</text><text x="28" y="234" fill="#59636E" font-size="10" font-weight="700">TACTICS</text><text x="118" y="234" fill="#1F2328" font-size="11" font-weight="650">Judging 54%</text><rect x="255" y="226" width="250" height="10" rx="5" fill="#E1E4E8"/><rect x="255" y="226" width="135.0" height="10" rx="5" fill="#88619A"/><text x="732" y="234" fill="#1F2328" font-size="11" font-weight="650" text-anchor="end">Prospecting 46%</text><text x="28" y="270" fill="#59636E" font-size="10" font-weight="700">IDENTITY</text><text x="118" y="270" fill="#1F2328" font-size="11" font-weight="650">Turbulent 57%</text><rect x="255" y="262" width="250" height="10" rx="5" fill="#E1E4E8"/><rect x="255" y="262" width="142.5" height="10" rx="5" fill="#88619A"/><text x="732" y="270" fill="#1F2328" font-size="11" font-weight="650" text-anchor="end">Assertive 43%</text><text x="28" y="300" fill="#59636E" font-size="10">Source: 16Personalities · 2025-01-26</text></g></svg>