<svg xmlns="http://www.w3.org/2000/svg" width="760" height="184" viewBox="0 0 760 184" role="img"><title>Weather for Boston, Massachusetts</title><desc>Mainly clear, 77°F. Weather data by Open-Meteo.com</desc><rect x="1" y="1" width="758" height="182" rx="18" fill="#0D1117" stroke="#30363D"/><g font-family="-apple-system,BlinkMacSystemFont,Segoe UI,Helvetica,Arial,sans-serif"><text x="28" y="30" fill="#58A6FF" font-size="10" font-weight="800" letter-spacing="0.7">LOCAL WEATHER</text><text x="28" y="49" fill="#8B949E" font-size="11">Boston, Massachusetts</text><text x="28" y="94" fill="#F0F6FC" font-size="36" font-weight="750">77°F</text><text x="120" y="80" fill="#F0F6FC" font-size="15" font-weight="650">Mainly clear</text><text x="120" y="99" fill="#8B949E" font-size="11">High 80° · Low 60°</text><rect x="286" y="104" width="446" height="48" rx="12" fill="#161B22" stroke="#30363D"/><text x="302" y="121" fill="#8B949E" font-size="9" font-weight="700">FEELS</text><text x="302" y="139" fill="#F0F6FC" font-size="14" font-weight="650">77°F</text><text x="417" y="121" fill="#8B949E" font-size="9" font-weight="700">HUMIDITY</text><text x="417" y="139" fill="#F0F6FC" font-size="14" font-weight="650">58%</text><text x="532" y="121" fill="#8B949E" font-size="9" font-weight="700">WIND</text><text x="532" y="139" fill="#F0F6FC" font-size="14" font-weight="650">9 mph</text><text x="640" y="121" fill="#8B949E" font-size="9" font-weight="700">PRECIP</text><text x="640" y="139" fill="#F0F6FC" font-size="14" font-weight="650">1%</text><g data-weather-icon="mostly-clear" aria-hidden="true" transform="translate(685.0 23.0) scale(0.8125)"><g transform="translate(-10 -10) scale(.72)"><g fill="none" stroke="#E3B341" stroke-width="3" stroke-linecap="round"><line x1="32" y1="5" x2="32" y2="13"/><line x1="32" y1="51" x2="32" y2="59"/><line x1="5" y1="32" x2="13" y2="32"/><line x1="51" y1="32" x2="59" y2="32"/><line x1="13" y1="13" x2="18.5" y2="18.5"/><line x1="45.5" y1="45.5" x2="51" y2="51"/><line x1="13" y1="51" x2="18.5" y2="45.5"/><line x1="45.5" y1="18.5" x2="51" y2="13"/><circle cx="32" cy="32" r="12"/></g></g><path d="M16 45h31c7 0 12-5 12-11s-5-11-12-11h-1C43 14 36 9 27 9c-10 0-18 8-19 18-5 2-8 6-8 10 0 5 4 8 9 8h7z" fill="#8B949E" opacity="0.94"/></g><text x="28" y="169" fill="#8B949E" font-size="9">Open-Meteo · location from public GitHub profile</text></g></svg>