<svg xmlns="http://www.w3.org/2000/svg" width="360" height="236" viewBox="0 0 360 236" role="img"><title>Weather for Boston, Massachusetts</title><desc>Overcast, 61°F. Weather data by Open-Meteo.com</desc><rect x="1" y="1" width="358" height="234" rx="18" fill="#0D1117" stroke="#30363D"/><g font-family="-apple-system,BlinkMacSystemFont,Segoe UI,Helvetica,Arial,sans-serif"><text x="28" y="30" fill="#58A6FF" font-size="10" font-weight="800" letter-spacing="0.7">LOCAL WEATHER</text><text x="28" y="49" fill="#8B949E" font-size="11">Boston, Massachusetts</text><text x="28" y="94" fill="#F0F6FC" font-size="36" font-weight="750">61°F</text><text x="112" y="80" fill="#F0F6FC" font-size="15" font-weight="650">Overcast</text><text x="112" y="99" fill="#8B949E" font-size="11">High 71° · Low 61°</text><rect x="18" y="119" width="324" height="76" rx="12" fill="#161B22" stroke="#30363D"/><text x="28" y="143" fill="#8B949E" font-size="9" font-weight="700">FEELS</text><text x="28" y="159" fill="#F0F6FC" font-size="14" font-weight="650">61°F</text><text x="190" y="143" fill="#8B949E" font-size="9" font-weight="700">HUMIDITY</text><text x="190" y="159" fill="#F0F6FC" font-size="14" font-weight="650">87%</text><text x="28" y="178" fill="#8B949E" font-size="9" font-weight="700">WIND</text><text x="28" y="194" fill="#F0F6FC" font-size="14" font-weight="650">6 mph</text><text x="190" y="178" fill="#8B949E" font-size="9" font-weight="700">PRECIP</text><text x="190" y="194" fill="#F0F6FC" font-size="14" font-weight="650">56%</text><g data-weather-icon="overcast" aria-hidden="true" transform="translate(282.0 30.0) scale(0.7188)"><path d="M16 45h31c7 0 12-5 12-11s-5-11-12-11h-1C43 14 36 9 27 9c-10 0-18 8-19 18-5 2-8 6-8 10 0 5 4 8 9 8h7z" fill="#8B949E" opacity="0.94"/></g><text x="28" y="221" fill="#8B949E" font-size="9">Open-Meteo · location from public GitHub profile</text></g></svg>