<svg xmlns="http://www.w3.org/2000/svg" width="760" height="184" viewBox="0 0 760 184" role="img"><title>Weather for Boston, Massachusetts</title><desc>Overcast, 58°F. Weather data by Open-Meteo.com</desc><rect x="1" y="1" width="758" height="182" rx="18" fill="#FFFFFF" stroke="#D0D7DE"/><g font-family="-apple-system,BlinkMacSystemFont,Segoe UI,Helvetica,Arial,sans-serif"><text x="28" y="30" fill="#0969DA" font-size="10" font-weight="800" letter-spacing="0.7">LOCAL WEATHER</text><text x="28" y="49" fill="#59636E" font-size="11">Boston, Massachusetts</text><text x="28" y="94" fill="#1F2328" font-size="36" font-weight="750">58°F</text><text x="120" y="80" fill="#1F2328" font-size="15" font-weight="650">Overcast</text><text x="120" y="99" fill="#59636E" font-size="11">High 84° · Low 58°</text><rect x="286" y="104" width="446" height="48" rx="12" fill="#F6F8FA" stroke="#D0D7DE"/><text x="302" y="121" fill="#59636E" font-size="9" font-weight="700">FEELS</text><text x="302" y="139" fill="#1F2328" font-size="14" font-weight="650">57°F</text><text x="417" y="121" fill="#59636E" font-size="9" font-weight="700">HUMIDITY</text><text x="417" y="139" fill="#1F2328" font-size="14" font-weight="650">84%</text><text x="532" y="121" fill="#59636E" font-size="9" font-weight="700">WIND</text><text x="532" y="139" fill="#1F2328" font-size="14" font-weight="650">5 mph</text><text x="640" y="121" fill="#59636E" font-size="9" font-weight="700">PRECIP</text><text x="640" y="139" fill="#1F2328" font-size="14" font-weight="650">21%</text><g data-weather-icon="overcast" aria-hidden="true" transform="translate(685.0 23.0) scale(0.8125)"><path d="M16 45h31c7 0 12-5 12-11s-5-11-12-11h-1C43 14 36 9 27 9c-10 0-18 8-19 18-5 2-8 6-8 10 0 5 4 8 9 8h7z" fill="#57606A" opacity="0.94"/></g><text x="28" y="169" fill="#59636E" font-size="9">Open-Meteo · location from public GitHub profile</text></g></svg>